<?xml version="1.0" encoding="UTF-8" standalone="no"?>
<!-- Created with Inkscape (http://www.inkscape.org/) -->

<svg
   xmlns:dc="http://purl.org/dc/elements/1.1/"
   xmlns:cc="http://creativecommons.org/ns#"
   xmlns:rdf="http://www.w3.org/1999/02/22-rdf-syntax-ns#"
   xmlns:svg="http://www.w3.org/2000/svg"
   xmlns="http://www.w3.org/2000/svg"
   xmlns:xlink="http://www.w3.org/1999/xlink"
   xmlns:sodipodi="http://sodipodi.sourceforge.net/DTD/sodipodi-0.dtd"
   xmlns:inkscape="http://www.inkscape.org/namespaces/inkscape"
   id="svg3004"
   version="1.1"
   inkscape:version="0.48.3.1 r9886"
   width="2400"
   height="4214.025"
   xml:space="preserve"
   sodipodi:docname="ink_ext_XXXXXX.svgJLNG8W"><sodipodi:namedview
     pagecolor="#ffffff"
     bordercolor="#666666"
     borderopacity="1"
     objecttolerance="10"
     gridtolerance="10"
     guidetolerance="10"
     inkscape:pageopacity="0"
     inkscape:pageshadow="2"
     inkscape:window-width="1366"
     inkscape:window-height="744"
     id="namedview3006"
     showgrid="false"
     showguides="true"
     inkscape:guide-bbox="true"
     inkscape:zoom="1"
     inkscape:cx="1248.5326"
     inkscape:cy="1686.9381"
     inkscape:window-x="0"
     inkscape:window-y="24"
     inkscape:window-maximized="1"
     inkscape:current-layer="g3012"><sodipodi:guide
       id="guide3516"
       position="1050.4545,1787.7273"
       orientation="0,1" /><sodipodi:guide
       id="guide3518"
       position="1038.6364,1598.1818"
       orientation="0,1" /><sodipodi:guide
       id="guide3520"
       position="1069.5455,1804.0909"
       orientation="1,0" /><sodipodi:guide
       id="guide3522"
       position="1330,1808.6364"
       orientation="1,0" /><sodipodi:guide
       id="guide3524"
       position="1418.1818,1807.7273"
       orientation="1,0" /><sodipodi:guide
       id="guide3526"
       position="981.36364,1815"
       orientation="1,0" /><sodipodi:guide
       id="guide3528"
       position="720.45455,1804.0909"
       orientation="1,0" /><sodipodi:guide
       id="guide3532"
       position="1679,1943"
       orientation="1,0" /></sodipodi:namedview><metadata
     id="metadata3010"><rdf:RDF><cc:Work
         rdf:about=""><dc:format>image/svg+xml</dc:format><dc:type
           rdf:resource="http://purl.org/dc/dcmitype/StillImage" /></cc:Work></rdf:RDF></metadata><defs
     id="defs3008"><clipPath
       id="clipPath3018"
       clipPathUnits="userSpaceOnUse"><path
         id="path3020"
         d="m 707.087,345.757 c -5.57,0 -10.086,-5.171 -10.086,-11.549 l 0,0 0,-29.835 c 0,-6.377 4.516,-11.549 10.086,-11.549 l 0,0 76.492,0 c 5.571,0 10.086,5.172 10.086,11.549 l 0,0 0,29.835 c 0,6.378 -4.515,11.549 -10.086,11.549 l 0,0 -76.492,0 z" /></clipPath><clipPath
       id="clipPath3026"
       clipPathUnits="userSpaceOnUse"><path
         id="path3028"
         d="m -32768,32767 65535,0 0,-65535 -65535,0 0,65535 z" /></clipPath><linearGradient
       id="linearGradient3030"
       spreadMethod="pad"
       gradientTransform="matrix(-2.3e-6,52.932617,52.932617,2.3e-6,745.33301,292.82422)"
       gradientUnits="userSpaceOnUse"
       y2="0"
       x2="1"
       y1="0"
       x1="0"><stop
         id="stop3032"
         offset="0"
         style="stop-opacity:0.50000763;stop-color:#ffffff" /><stop
         id="stop3034"
         offset="0.5"
         style="stop-opacity:1;stop-color:#ffffff" /><stop
         id="stop3036"
         offset="1"
         style="stop-opacity:0.50000763;stop-color:#ffffff" /></linearGradient><mask
       id="mask3038"
       height="1"
       width="1"
       y="0"
       x="0"
       maskUnits="userSpaceOnUse"><g
         id="g3040"><g
           id="g3042"
           clip-path="url(#clipPath3026)"><g
             id="g3044"><g
               id="g3046"><path
                 id="path3048"
                 style="fill:url(#linearGradient3030);stroke:none"
                 d="m -32768,32767 65535,0 0,-65535 -65535,0 0,65535 z" /></g></g></g></g></mask><linearGradient
       id="linearGradient3054"
       spreadMethod="pad"
       gradientTransform="matrix(-2.3e-6,52.932617,52.932617,2.3e-6,745.33301,292.82422)"
       gradientUnits="userSpaceOnUse"
       y2="0"
       x2="1"
       y1="0"
       x1="0"><stop
         id="stop3056"
         offset="0"
         style="stop-opacity:1;stop-color:#003366" /><stop
         id="stop3058"
         offset="1"
         style="stop-opacity:1;stop-color:#003366" /></linearGradient><clipPath
       id="clipPath3070"
       clipPathUnits="userSpaceOnUse"><path
         id="path3072"
         d="m 0,3371.225 1920,0 L 1920,0 0,0 0,3371.225 z" /></clipPath><clipPath
       id="clipPath3092"
       clipPathUnits="userSpaceOnUse"><path
         id="path3094"
         d="m 0,3371.225 1920,0 L 1920,0 0,0 0,3371.225 z" /></clipPath><clipPath
       id="clipPath3106"
       clipPathUnits="userSpaceOnUse"><path
         id="path3108"
         d="m 0,3371.225 1920,0 L 1920,0 0,0 0,3371.225 z" /></clipPath><clipPath
       id="clipPath3116"
       clipPathUnits="userSpaceOnUse"><path
         id="path3118"
         d="m 697,821.72 550,0 0,-40 -550,0 0,40 z" /></clipPath><clipPath
       id="clipPath3136"
       clipPathUnits="userSpaceOnUse"><path
         id="path3138"
         d="m 0,3371.225 1920,0 L 1920,0 0,0 0,3371.225 z" /></clipPath><clipPath
       id="clipPath3144"
       clipPathUnits="userSpaceOnUse"><path
         id="path3146"
         d="m 697,733.72 550,0 0,-40 -550,0 0,40 z" /></clipPath><clipPath
       id="clipPath3164"
       clipPathUnits="userSpaceOnUse"><path
         id="path3166"
         d="m 0,3371.225 1920,0 L 1920,0 0,0 0,3371.225 z" /></clipPath><clipPath
       id="clipPath3172"
       clipPathUnits="userSpaceOnUse"><path
         id="path3174"
         d="m 697,647.72 550,0 0,-40 -550,0 0,40 z" /></clipPath><clipPath
       id="clipPath3194"
       clipPathUnits="userSpaceOnUse"><path
         id="path3196"
         d="m 0,3371.225 1920,0 L 1920,0 0,0 0,3371.225 z" /></clipPath><clipPath
       id="clipPath3202"
       clipPathUnits="userSpaceOnUse"><path
         id="path3204"
         d="m 697,557.72 550,0 0,-166 -550,0 0,166 z" /></clipPath><clipPath
       id="clipPath3222"
       clipPathUnits="userSpaceOnUse"><path
         id="path3224"
         d="m 0,3371.225 1920,0 L 1920,0 0,0 0,3371.225 z" /></clipPath><clipPath
       id="clipPath3230"
       clipPathUnits="userSpaceOnUse"><path
         id="path3232"
         d="m 940.513,188.493 50,0 0,-50 -50,0 0,50 z" /></clipPath><clipPath
       id="clipPath3254"
       clipPathUnits="userSpaceOnUse"><path
         id="path3256"
         d="m 482.205,2224.06 960.005,0 0,-1 -960.005,0 0,1 z" /></clipPath><clipPath
       id="clipPath3334"
       clipPathUnits="userSpaceOnUse"><path
         id="path3336"
         d="m 0,3371.225 1920,0 L 1920,0 0,0 0,3371.225 z" /></clipPath><clipPath
       id="clipPath3342"
       clipPathUnits="userSpaceOnUse"><path
         id="path3344"
         d="m 935,2298.06 50,0 0,-50 -50,0 0,50 z" /></clipPath><clipPath
       id="clipPath3366"
       clipPathUnits="userSpaceOnUse"><path
         id="path3368"
         d="m 480,1774.13 960,0 0,-1 -960,0 0,1 z" /></clipPath><clipPath
       id="clipPath3382"
       clipPathUnits="userSpaceOnUse"><path
         id="path3384"
         d="m 935,1848.13 50,0 0,-50 -50,0 0,50 z" /></clipPath><clipPath
       id="clipPath3426"
       clipPathUnits="userSpaceOnUse"><path
         id="path3428"
         d="m 0,3371.225 1920,0 L 1920,0 0,0 0,3371.225 z" /></clipPath><clipPath
       id="clipPath3442"
       clipPathUnits="userSpaceOnUse"><path
         id="path3444"
         d="m 480,1106.16 960,0 0,-1 -960,0 0,1 z" /></clipPath><clipPath
       id="clipPath3458"
       clipPathUnits="userSpaceOnUse"><path
         id="path3460"
         d="m 935,1180.17 50,0 0,-50 -50,0 0,50 z" /></clipPath><clipPath
       id="clipPath3480"
       clipPathUnits="userSpaceOnUse"><path
         id="path3482"
         d="m 0,3371.225 1920,0 L 1920,0 0,0 0,3371.225 z" /></clipPath><clipPath
       id="clipPath3494"
       clipPathUnits="userSpaceOnUse"><path
         id="path3496"
         d="m 0,3371.225 1920,0 L 1920,0 0,0 0,3371.225 z" /></clipPath><clipPath
       id="clipPath3508"
       clipPathUnits="userSpaceOnUse"><path
         id="path3510"
         d="m 2.205,2647.758 1917.795,0 0,420 -1917.795,0 0,-420 z" /></clipPath></defs><g
     transform="matrix(1.25,0,0,-1.25,0,4214.025)"
     inkscape:label="website_about"
     inkscape:groupmode="layer"
     id="g3012"><g
   id="g3014"><g
     clip-path="url(#clipPath3018)"
     id="g3016"><g
       id="g3022"><g
         id="g3024" /><g
         mask="url(#mask3038)"
         id="g3050"><g
           id="g3052"><path
             id="path3060"
             style="fill:url(#linearGradient3054);stroke:none"
             d="m 707.087,345.757 c -5.57,0 -10.086,-5.171 -10.086,-11.549 l 0,0 0,-29.835 c 0,-6.377 4.516,-11.549 10.086,-11.549 l 0,0 76.492,0 c 5.571,0 10.086,5.172 10.086,11.549 l 0,0 0,29.835 c 0,6.378 -4.515,11.549 -10.086,11.549 l 0,0 -76.492,0 z" /></g></g></g></g></g><text
   id="text3062"
   transform="matrix(1,0,0,-1,720.2974,314.6826)"><tspan
     id="tspan3064"
     sodipodi:role="line"
     y="0"
     x="0 7.936 17.136 26.384 39.936 44.032"
     style="fill:#ffffff;fill-opacity:1;fill-rule:nonzero;stroke:none;font-family:Cantarell;font-variant:normal;font-weight:500;font-stretch:normal;font-size:16;writing-mode:lr;-inkscape-font-specification:Cantarell-Regular">submit</tspan></text>

<g
   id="g3066"><g
     clip-path="url(#clipPath3070)"
     id="g3068"><path
       id="path3074"
       style="fill:#003366;fill-opacity:1;fill-rule:nonzero;stroke:none"
       d="m 1920,3252.983 -1920,0 0,120 1920,0 0,-120 z" /><path
       id="path3076"
       style="fill:#ffffff;fill-opacity:1;fill-rule:nonzero;stroke:none"
       d="m 572.651,3280.337 -60.001,0 0,66.668 60.001,0 0,-66.668 z m -63.75,-4.166 67.499,0 0,75 -67.499,0 0,-75 z" /><g
       transform="translate(545.752,3312.7197)"
       id="g3078"><path
         id="path3080"
         style="fill:#ffffff;fill-opacity:1;fill-rule:nonzero;stroke:none"
         d="m 0,0 -13.1,0 0,-12.149 14.599,0 0,-3.649 -18.95,0 0,33.698 18.201,0 0,-3.65 -13.85,0 0,-10.649 13.1,0 L 0,0 z" /></g><path
       id="path3082"
       style="fill:#ffffff;fill-opacity:1;fill-rule:nonzero;stroke:none"
       d="m 552.751,3321.12 4.4,0 0,-24.199 -4.4,0 0,24.199 z m 4.901,6.8 c 0.05,-1.5 -1.05,-2.7 -2.8,-2.7 -1.551,0 -2.651,1.2 -2.651,2.7 0,1.55 1.151,2.749 2.751,2.749 1.65,0 2.7,-1.199 2.7,-2.749" /></g></g><text
   id="text3084"
   transform="matrix(1,0,0,-1,1132.4927,3280.5063)"><tspan
     id="tspan3086"
     sodipodi:role="line"
     y="0"
     x="0 10.64 23.808 32.656 45.008 54.464 60.16 73.328 86.304 205.648 216.976 230.144 243.104 252.56 263.36 274.688 122.832 133.632 144.752 157.92 170.272"
     style="fill:#ffffff;fill-opacity:1;fill-rule:nonzero;stroke:none;font-family:Cantarell;font-variant:normal;font-weight:500;font-stretch:normal;font-size:16;writing-mode:lr;-inkscape-font-specification:Cantarell-Regular">SOLUTIONSCONTACTABOUT</tspan></text>

<g
   id="g3088"><g
     clip-path="url(#clipPath3092)"
     id="g3090"><path
       id="path3096"
       style="fill:#003366;fill-opacity:1;fill-rule:nonzero;stroke:none"
       d="m 1920,3067.758 -1920,0 0,187.869 1920,0 0,-187.869 z" /></g></g><text
   id="text3098"
   transform="matrix(1,0,0,-1,585,3117.1284)"><tspan
     id="tspan3100"
     sodipodi:role="line"
     y="0"
     x="0 32.4 60.144 88.512 116.112 134.256 147.36 177.408 204.96 230.784 249.6336 277.1856 302.0496 315.1536 332.2416 359.7936 383.6016 411.2016 437.0256 460.4976 478.6416 507.0096 525.7776"
     style="fill:#70c9ca;fill-opacity:1;fill-rule:nonzero;stroke:none;font-family:Cantarell;font-variant:normal;font-weight:500;font-stretch:normal;font-size:48;writing-mode:lr;-inkscape-font-specification:Cantarell-Regular">About Energy Inspectors</tspan></text>

<g
   id="g3102"><g
     clip-path="url(#clipPath3106)"
     id="g3104"><path
       id="path3110"
       style="fill:#003366;fill-opacity:1;fill-rule:nonzero;stroke:none"
       d="m 1922.205,0 -1920,0 0,120 1920,0 0,-120 z" /><g
       id="g3112"><g
         id="g3114" /><g
         id="g3120"><g
           id="g3122"
           opacity="0.399994"
           clip-path="url(#clipPath3116)"><g
             id="g3124"
             transform="translate(1247,793.7197)"><path
               id="path3126"
               style="fill:#d0d2d3;fill-opacity:1;fill-rule:nonzero;stroke:none"
               d="m 0,0 c 0,-6.627 -5.373,-12 -12,-12 l -526,0 c -6.628,0 -12,5.373 -12,12 l 0,16 c 0,6.627 5.372,12 12,12 l 526,0 C -5.373,28 0,22.627 0,16 L 0,0 z" /></g></g></g></g></g></g><text
   id="text3128"
   transform="matrix(1,0,0,-1,697,837.7197)"><tspan
     id="tspan3130"
     sodipodi:role="line"
     y="0"
     x="0 14.24 23.872 39.344 49.232"
     style="fill:#003366;fill-opacity:1;fill-rule:nonzero;stroke:none;font-family:Cantarell;font-variant:normal;font-weight:bold;font-stretch:normal;font-size:16;writing-mode:lr;-inkscape-font-specification:Cantarell-Bold">Name:</tspan></text>

<g
   id="g3132"><g
     clip-path="url(#clipPath3136)"
     id="g3134"><g
       id="g3140"><g
         id="g3142" /><g
         id="g3148"><g
           id="g3150"
           opacity="0.399994"
           clip-path="url(#clipPath3144)"><g
             id="g3152"
             transform="translate(1247,705.7197)"><path
               id="path3154"
               style="fill:#d0d2d3;fill-opacity:1;fill-rule:nonzero;stroke:none"
               d="m 0,0 c 0,-6.627 -5.373,-12 -12,-12 l -526,0 c -6.628,0 -12,5.373 -12,12 l 0,16 c 0,6.627 5.372,12 12,12 l 526,0 C -5.373,28 0,22.627 0,16 L 0,0 z" /></g></g></g></g></g></g><text
   id="text3156"
   transform="matrix(1,0,0,-1,697,749.7197)"><tspan
     id="tspan3158"
     sodipodi:role="line"
     y="0"
     x="0 11.312 26.784 36.416 41.152 46.192"
     style="fill:#003366;fill-opacity:1;fill-rule:nonzero;stroke:none;font-family:Cantarell;font-variant:normal;font-weight:bold;font-stretch:normal;font-size:16;writing-mode:lr;-inkscape-font-specification:Cantarell-Bold">Email:</tspan></text>

<g
   id="g3160"><g
     clip-path="url(#clipPath3164)"
     id="g3162"><g
       id="g3168"><g
         id="g3170" /><g
         id="g3176"><g
           id="g3178"
           opacity="0.399994"
           clip-path="url(#clipPath3172)"><g
             id="g3180"
             transform="translate(1247,619.7197)"><path
               id="path3182"
               style="fill:#d0d2d3;fill-opacity:1;fill-rule:nonzero;stroke:none"
               d="m 0,0 c 0,-6.627 -5.373,-12 -12,-12 l -526,0 c -6.628,0 -12,5.373 -12,12 l 0,16 c 0,6.627 5.372,12 12,12 l 526,0 C -5.373,28 0,22.627 0,16 L 0,0 z" /></g></g></g></g></g></g><text
   id="text3184"
   transform="matrix(1,0,0,-1,697,663.7197)"><tspan
     id="tspan3186"
     sodipodi:role="line"
     y="0"
     x="0 12.624 23.36 38.832 49.312 58.944 69.296 78.864"
     style="fill:#003366;fill-opacity:1;fill-rule:nonzero;stroke:none;font-family:Cantarell;font-variant:normal;font-weight:bold;font-stretch:normal;font-size:16;writing-mode:lr;-inkscape-font-specification:Cantarell-Bold">Company:</tspan><tspan
     id="tspan3188"
     sodipodi:role="line"
     y="94.992"
     x="0 16 25.888 35.104 44.32 53.952 64.416 74.304"
     style="fill:#003366;fill-opacity:1;fill-rule:nonzero;stroke:none;font-family:Cantarell;font-variant:normal;font-weight:bold;font-stretch:normal;font-size:16;writing-mode:lr;-inkscape-font-specification:Cantarell-Bold">Message:</tspan></text>

<g
   id="g3190"><g
     clip-path="url(#clipPath3194)"
     id="g3192"><g
       id="g3198"><g
         id="g3200" /><g
         id="g3206"><g
           id="g3208"
           opacity="0.399994"
           clip-path="url(#clipPath3202)"><g
             id="g3210"
             transform="translate(1247,403.7197)"><path
               id="path3212"
               style="fill:#d0d2d3;fill-opacity:1;fill-rule:nonzero;stroke:none"
               d="m 0,0 c 0,-6.627 -5.373,-12 -12,-12 l -526,0 c -6.628,0 -12,5.373 -12,12 l 0,142 c 0,6.627 5.372,12 12,12 l 526,0 c 6.627,0 12,-5.373 12,-12 L 0,0 z" /></g></g></g></g></g></g><text
   id="text3214"
   transform="matrix(1,0,0,-1,868.165,32.4932)"><tspan
     id="tspan3216"
     sodipodi:role="line"
     y="0"
     x="0 12.026 20.79 32.13 40.894 50.722 61.6 70.238 74.06 79.044 90.384 99.694 108.85 117.614 127.526 135.8 147.322 157.15 166.46 174.888 178.71 187.6 196.49 205.38"
     style="fill:#ffffff;fill-opacity:1;fill-rule:nonzero;stroke:none;font-family:Cantarell;font-variant:normal;font-weight:500;font-stretch:normal;font-size:14;writing-mode:lr;-inkscape-font-specification:Cantarell-Regular">©ENERGY INSPECTORS® 2013</tspan></text>

<g
   id="g3218"><g
     clip-path="url(#clipPath3222)"
     id="g3220"><g
       id="g3226"><g
         id="g3228" /><g
         id="g3234"><g
           id="g3236"
           opacity="0.5"
           clip-path="url(#clipPath3230)"><g
             id="g3238"
             transform="translate(979.2646,151.6211)"><path
               id="path3240"
               style="fill:#003366;fill-opacity:1;fill-rule:nonzero;stroke:none"
               d="M 0,0 -13.752,13.752 -27.504,0 l -4.998,4.998 18.746,18.746 0.004,-0.004 0.004,0.004 L 4.998,4.998 0,0 z m -38.752,-13.128 50,0 0,50 -50,0 0,-50 z" /></g></g></g></g><g
       transform="translate(482.2051,2224.627)"
       id="g3242"><path
         id="path3244"
         style="fill:#003366;fill-opacity:1;fill-rule:nonzero;stroke:#003366;stroke-opacity:1;stroke-width:1;stroke-linecap:butt;stroke-linejoin:miter;stroke-miterlimit:10;stroke-dasharray:none"
         d="M 0,0 960,0" /></g><g
       transform="translate(482.2051,2224.627)"
       id="g3246"><path
         id="path3248"
         style="fill:#003366;fill-opacity:1;fill-rule:nonzero;stroke:#003366;stroke-opacity:1;stroke-width:1;stroke-linecap:butt;stroke-linejoin:miter;stroke-miterlimit:10;stroke-dasharray:none"
         d="M 0,0 960,0" /></g><g
       id="g3250"><g
         id="g3252" /><g
         id="g3258"><g
           id="g3260"
           opacity="0.5"
           clip-path="url(#clipPath3254)"><g
             id="g3262"
             transform="translate(482.2051,2223.5625)"><path
               id="path3264"
               style="fill:none;stroke:#003366;stroke-opacity:1;stroke-width:1;stroke-linecap:butt;stroke-linejoin:miter;stroke-miterlimit:10;stroke-dasharray:none"
               d="M 0,0 960,0" /></g></g></g></g></g></g><text
   id="text3266"
   transform="matrix(1,0,0,-1,585,2504.978)"><tspan
     id="tspan3268"
     sodipodi:role="line"
     y="0"
     x="0 16 25.632 30.368 40.72 44.6656 55.1456 65.8816 70.6176 80.9696 88.2976 92.2512 102.7312 107.4672 117.9312 128.4112 133.4512 138.1872 148.6512 159.1312 166.4592 176.3472 186.9072 190.8608 198.5408 209.2768 216.6688 220.6272 230.2592 237.5872 244.9152 254.8032 265.1552 272.4832 277.2192 287.9552 298.3072 302.2928 312.7568 320.1488 329.7808 340.3088 350.8368 355.5728 365.9248 376.3888 380.8368"
     style="fill:#003366;fill-opacity:1;fill-rule:nonzero;stroke:none;font-family:Cantarell;font-variant:normal;font-weight:bold;font-stretch:normal;font-size:16;writing-mode:lr;-inkscape-font-specification:Cantarell-Bold">Main point highlighted for attention grabbing. </tspan></text>

<text
   id="text3270"
   transform="matrix(1,0,0,-1,969.8,2504.978)"><tspan
     id="tspan3272"
     sodipodi:role="line"
     y="0"
     x="0 10.64 19.84 28.448 36.272 42.32 50.672 58.496 62.896 71.248 77.504 81.44 90.64 98.992 105.248 113.6 122.784 129.04 137.392 146.592 155.904 159.8304 167.6544 177.1104 186.2944 192.3424 200.9504 210.1344 216.1824 220.144 229.424 238.032 245.968 253.792 260.048 264.144 273.392 277.488 286.672 295.856 299.792 309.248 318.448 324.704 328.64 334.688 343.296 351.648 365.2"
     style="fill:#003366;fill-opacity:1;fill-rule:nonzero;stroke:none;font-family:Cantarell;font-variant:normal;font-weight:500;font-stretch:normal;font-size:16;writing-mode:lr;-inkscape-font-specification:Cantarell-Regular">Spectaclar paragraph content describing our team </tspan><tspan
     id="tspan3274"
     sodipodi:role="line"
     y="19.2"
     x="-384.8 -376.448 -367.264 -357.984 -350.6784 -341.3664 -337.2704 -328.0864 -318.7744 -314.3744 -310.2784 -301.0944 -291.7824 -285.7344 -281.6384 -272.4544 -263.2704 -255.9744 -246.5184 -237.3184 -231.0624 -223.7664 -215.4144 -207.4784 -199.5424 -190.9344 -184.8864 -176.9504 -172.5024 -165.184 -152.224 -142.768 -136.72 -129.4048 -115.8528 -106.3968 -100.1408 -91.5328 -84.2368 -78.1888 -68.8768 -60.5248 -51.3408 -44.0448 -35.6928 -28.3968 -21.9968 -13.3888 -0.2208 7.0848 15.0208 23.6288 32.8128 38.8608 47.4688 56.6528 64.4768 73.0848 81.0208 88.3392 97.5392 106.1472 112.4032 119.6992 128.8992 137.2512 143.5072 151.8592 161.0432 167.2992 175.6512 184.8512 194.1632 198.6112 205.9072 216.5472 225.7472 234.3552 242.1792 248.2272 256.5792 264.4032 268.8032 277.1552 283.4112 290.7072 299.9072 308.2592 314.5152 322.8672 332.0512 338.3072 346.6592 355.8592 365.1712"
     style="fill:#003366;fill-opacity:1;fill-rule:nonzero;stroke:none;font-family:Cantarell;font-variant:normal;font-weight:500;font-stretch:normal;font-size:16;writing-mode:lr;-inkscape-font-specification:Cantarell-Regular">and highlighting our assets. Not more than a few sentences per paragraph. Spectaclar paragraph </tspan><tspan
     id="tspan3276"
     sodipodi:role="line"
     y="38.4"
     x="-384.8 -376.976 -367.52 -358.336 -352.288 -343.68 -334.496 -328.448 -324.08 -314.8 -306.192 -298.256 -290.432 -284.176 -280.08 -270.832 -266.736 -257.552 -248.368 -244 -234.544 -225.344 -219.088 -214.72 -208.672 -200.064 -191.712 -178.16 -173.792 -165.44 -156.256 -146.976 -142.608 -133.296 -129.2 -120.016 -110.704 -106.304 -102.208 -93.024 -83.712 -77.664 -73.568 -64.384 -55.2 -50.832 -41.376 -32.176 -25.92 -21.552 -13.2 -5.264 2.672 11.28 17.328 25.264 29.712 34.08 47.04 56.496 62.544 66.912 80.464 89.92 96.176 104.784 109.152 115.2 124.512 132.864 142.048 146.416 154.768 159.136 165.536 174.144 187.312 191.68 199.616 208.224 217.408 223.456 232.064 241.248 249.072 257.68 265.616 269.984 279.184 287.792 294.048 298.416 307.616 315.968 322.224 330.576 339.76 346.016 354.368 363.568 372.88"
     style="fill:#003366;fill-opacity:1;fill-rule:nonzero;stroke:none;font-family:Cantarell;font-variant:normal;font-weight:500;font-stretch:normal;font-size:16;writing-mode:lr;-inkscape-font-specification:Cantarell-Regular">content describing our team and highlighting our assets. Not more than a few sentences per paragraph.</tspan></text>

<text
   id="text3278"
   transform="matrix(1,0,0,-1,585,2398.466)"><tspan
     id="tspan3280"
     sodipodi:role="line"
     y="0"
     x="0 16 25.632 30.368 40.72 44.6656 55.1456 65.8816 70.6176 80.9696 88.2976 92.2512 102.7312 107.4672 117.9312 128.4112 133.4512 138.1872 148.6512 159.1312 166.4592 176.3472 186.9072 190.8608 198.5408 209.2768 216.6688 220.6272 230.2592 237.5872 244.9152 254.8032 265.1552 272.4832 277.2192 287.9552 298.3072 302.2928 312.7568 320.1488 329.7808 340.3088 350.8368 355.5728 365.9248 376.3888 380.8368"
     style="fill:#003366;fill-opacity:1;fill-rule:nonzero;stroke:none;font-family:Cantarell;font-variant:normal;font-weight:bold;font-stretch:normal;font-size:16;writing-mode:lr;-inkscape-font-specification:Cantarell-Bold">Main point highlighted for attention grabbing. </tspan></text>

<text
   id="text3282"
   transform="matrix(1,0,0,-1,969.8,2398.466)"><tspan
     id="tspan3284"
     sodipodi:role="line"
     y="0"
     x="0 10.64 19.84 28.448 36.272 42.32 50.672 58.496 62.896 71.248 77.504 81.44 90.64 98.992 105.248 113.6 122.784 129.04 137.392 146.592 155.904 159.8304 167.6544 177.1104 186.2944 192.3424 200.9504 210.1344 216.1824 220.144 229.424 238.032 245.968 253.792 260.048 264.144 273.392 277.488 286.672 295.856 299.792 309.248 318.448 324.704 328.64 334.688 343.296 351.648 365.2"
     style="fill:#003366;fill-opacity:1;fill-rule:nonzero;stroke:none;font-family:Cantarell;font-variant:normal;font-weight:500;font-stretch:normal;font-size:16;writing-mode:lr;-inkscape-font-specification:Cantarell-Regular">Spectaclar paragraph content describing our team </tspan><tspan
     id="tspan3286"
     sodipodi:role="line"
     y="19.2"
     x="-384.8 -376.448 -367.264 -357.984 -350.6784 -341.3664 -337.2704 -328.0864 -318.7744 -314.3744 -310.2784 -301.0944 -291.7824 -285.7344 -281.6384 -272.4544 -263.2704 -255.9744 -246.5184 -237.3184 -231.0624 -223.7664 -215.4144 -207.4784 -199.5424 -190.9344 -184.8864 -176.9504 -172.5024 -165.184 -152.224 -142.768 -136.72 -129.4048 -115.8528 -106.3968 -100.1408 -91.5328 -84.2368 -78.1888 -68.8768 -60.5248 -51.3408 -44.0448 -35.6928 -28.3968 -21.9968 -13.3888 -0.2208 7.0848 15.0208 23.6288 32.8128 38.8608 47.4688 56.6528 64.4768 73.0848 81.0208 88.3392 97.5392 106.1472 112.4032 119.6992 128.8992 137.2512 143.5072 151.8592 161.0432 167.2992 175.6512 184.8512 194.1632 198.6112 205.9072 216.5472 225.7472 234.3552 242.1792 248.2272 256.5792 264.4032 268.8032 277.1552 283.4112 290.7072 299.9072 308.2592 314.5152 322.8672 332.0512 338.3072 346.6592 355.8592 365.1712"
     style="fill:#003366;fill-opacity:1;fill-rule:nonzero;stroke:none;font-family:Cantarell;font-variant:normal;font-weight:500;font-stretch:normal;font-size:16;writing-mode:lr;-inkscape-font-specification:Cantarell-Regular">and highlighting our assets. Not more than a few sentences per paragraph. Spectaclar paragraph </tspan><tspan
     id="tspan3288"
     sodipodi:role="line"
     y="38.4"
     x="-384.8 -376.976 -367.52 -358.336 -352.288 -343.68 -334.496 -328.448 -324.08 -314.8 -306.192 -298.256 -290.432 -284.176 -280.08 -270.832 -266.736 -257.552 -248.368 -244 -234.544 -225.344 -219.088 -214.72 -208.672 -200.064 -191.712 -178.16 -173.792 -165.44 -156.256 -146.976 -142.608 -133.296 -129.2 -120.016 -110.704 -106.304 -102.208 -93.024 -83.712 -77.664 -73.568 -64.384 -55.2 -50.832 -41.376 -32.176 -25.92 -21.552 -13.2 -5.264 2.672 11.28 17.328 25.264 29.712 34.08 47.04 56.496 62.544 66.912 80.464 89.92 96.176 104.784 109.152 115.2 124.512 132.864 142.048 146.416 154.768 159.136 165.536 174.144 187.312 191.68 199.616 208.224 217.408 223.456 232.064 241.248 249.072 257.68 265.616 269.984 279.184 287.792 294.048 298.416 307.616 315.968 322.224 330.576 339.76 346.016 354.368 363.568 372.88"
     style="fill:#003366;fill-opacity:1;fill-rule:nonzero;stroke:none;font-family:Cantarell;font-variant:normal;font-weight:500;font-stretch:normal;font-size:16;writing-mode:lr;-inkscape-font-specification:Cantarell-Regular">content describing our team and highlighting our assets. Not more than a few sentences per paragraph.</tspan></text>

<text
   id="text3290"
   transform="matrix(1,0,0,-1,585,2557.5913)"><tspan
     id="tspan3292"
     sodipodi:role="line"
     y="0"
     x="0 34.566 58.716 75.138 86.604 119.406 130.158 150.99 166.866 191.688 208.11"
     style="fill:#f27124;fill-opacity:1;fill-rule:nonzero;stroke:none;font-family:Cantarell;font-variant:normal;font-weight:500;font-stretch:normal;font-size:42;writing-mode:lr;-inkscape-font-specification:Cantarell-Regular">Our History</tspan><tspan
     id="tspan3294"
     sodipodi:role="line"
     y="1566.222"
     x="0 29.736 54.558 78.666 94.542 116.466 137.004 152.88 164.346 188.496 209.328 220.794 245.007 269.829"
     style="fill:#f27124;fill-opacity:1;fill-rule:nonzero;stroke:none;font-family:Cantarell;font-variant:normal;font-weight:500;font-stretch:normal;font-size:42;writing-mode:lr;-inkscape-font-specification:Cantarell-Regular">Contact us now</tspan></text>

<text
   id="text3296"
   transform="matrix(1,0,0,-1,585,955.1099)"><tspan
     id="tspan3298"
     sodipodi:role="line"
     y="0"
     x="0 11.328 20.784 29.968 36.016 44.368 52.192 58.24 64.0112 74.0272 83.2112 91.8192 98.0752 107.2592 115.5472 121.304 127 136.184 144.12 153.32 161.928 169.752 175.8 185.256 191.512 199.448 205.2144 211.2624 220.7184 229.9984 238.3504 246.6384 252.3824 258.4304 267.8864 273.6448 280.0448 284.1408 293.3248 302.6048 308.36 314.408 323.72 332.328 338.072 346.008 355.464 359.864 369.064 375.112 379.208 388.664 397.848 403.616 409.664 418.976 427.328 433.376 439.12 443.216 451.152 456.896 463.152 467.248 476.432 485.744 491.792 497.536 503.936 513.392 519.648 525.408 533.696 543.152 552.352 558.096 566.448 575.632 584.912 590.656 598.944 608.4 617.6 623.856 629.6 638.848 648.048 652.144 656.544 665.824 669.92 679.104 688.288 694.032 703.232 709.488 718.944 723.04 731.648 739.472 745.52 749.968"
     style="fill:#003366;fill-opacity:1;fill-rule:nonzero;stroke:none;font-family:Cantarell;font-variant:normal;font-weight:500;font-stretch:normal;font-size:16;writing-mode:lr;-inkscape-font-specification:Cantarell-Regular">Contact Energy Inspectors today to find the solution that is right for you and your building project. </tspan><tspan
     id="tspan3300"
     sodipodi:role="line"
     y="19.2"
     x="0 5.792 15.952 26.112 36.272 42.064 46.432 56.592 66.752 76.912 86.368 96.528 106.688 116.848"
     style="fill:#003366;fill-opacity:1;fill-rule:nonzero;stroke:none;font-family:Cantarell;font-variant:normal;font-weight:500;font-stretch:normal;font-size:16;writing-mode:lr;-inkscape-font-specification:Cantarell-Regular">(702) 365-8080</tspan></text>

<text
   id="text3302"
   transform="matrix(1,0,0,-1,585,2119.8862)"><tspan
     id="tspan3304"
     sodipodi:role="line"
     y="0"
     x="0 34.566 58.716 75.138 86.604 115.332 126.084 146.916 157.668 182.49"
     style="fill:#f27124;fill-opacity:1;fill-rule:nonzero;stroke:none;font-family:Cantarell;font-variant:normal;font-weight:500;font-stretch:normal;font-size:42;writing-mode:lr;-inkscape-font-specification:Cantarell-Regular">Our Vision</tspan></text>

<text
   id="text3306"
   transform="matrix(1,0,0,-1,585,2056.9897)"><tspan
     id="tspan3308"
     sodipodi:role="line"
     y="0"
     x="0 16 25.632 30.368 40.72 44.6656 55.1456 65.8816 70.6176 80.9696 88.2976 92.2512 102.7312 107.4672 117.9312 128.4112 133.4512 138.1872 148.6512 159.1312 166.4592 176.3472 186.9072 190.8608 198.5408 209.2768 216.6688 220.6272 230.2592 237.5872 244.9152 254.8032 265.1552 272.4832 277.2192 287.9552 298.3072 302.2928 312.7568 320.1488 329.7808 340.3088 350.8368 355.5728 365.9248 376.3888 380.8368"
     style="fill:#003366;fill-opacity:1;fill-rule:nonzero;stroke:none;font-family:Cantarell;font-variant:normal;font-weight:bold;font-stretch:normal;font-size:16;writing-mode:lr;-inkscape-font-specification:Cantarell-Bold">Main point highlighted for attention grabbing. </tspan></text>

<text
   id="text3310"
   transform="matrix(1,0,0,-1,969.8,2056.9897)"><tspan
     id="tspan3312"
     sodipodi:role="line"
     y="0"
     x="0 10.64 19.84 28.448 36.272 42.32 50.672 58.496 62.896 71.248 77.504 81.44 90.64 98.992 105.248 113.6 122.784 129.04 137.392 146.592 155.904 159.8304 167.6544 177.1104 186.2944 192.3424 200.9504 210.1344 216.1824 220.144 229.424 238.032 245.968 253.792 260.048 264.144 273.392 277.488 286.672 295.856 299.792 309.248 318.448 324.704 328.64 334.688 343.296 351.648 365.2"
     style="fill:#003366;fill-opacity:1;fill-rule:nonzero;stroke:none;font-family:Cantarell;font-variant:normal;font-weight:500;font-stretch:normal;font-size:16;writing-mode:lr;-inkscape-font-specification:Cantarell-Regular">Spectaclar paragraph content describing our team </tspan><tspan
     id="tspan3314"
     sodipodi:role="line"
     y="19.2"
     x="-384.8 -376.448 -367.264 -357.984 -350.6784 -341.3664 -337.2704 -328.0864 -318.7744 -314.3744 -310.2784 -301.0944 -291.7824 -285.7344 -281.6384 -272.4544 -263.2704 -255.9744 -246.5184 -237.3184 -231.0624 -223.7664 -215.4144 -207.4784 -199.5424 -190.9344 -184.8864 -176.9504 -172.5024 -165.184 -152.224 -142.768 -136.72 -129.4048 -115.8528 -106.3968 -100.1408 -91.5328 -84.2368 -78.1888 -68.8768 -60.5248 -51.3408 -44.0448 -35.6928 -28.3968 -21.9968 -13.3888 -0.2208 7.0848 15.0208 23.6288 32.8128 38.8608 47.4688 56.6528 64.4768 73.0848 81.0208 88.3392 97.5392 106.1472 112.4032 119.6992 128.8992 137.2512 143.5072 151.8592 161.0432 167.2992 175.6512 184.8512 194.1632 198.6112 205.9072 216.5472 225.7472 234.3552 242.1792 248.2272 256.5792 264.4032 268.8032 277.1552 283.4112 290.7072 299.9072 308.2592 314.5152 322.8672 332.0512 338.3072 346.6592 355.8592 365.1712"
     style="fill:#003366;fill-opacity:1;fill-rule:nonzero;stroke:none;font-family:Cantarell;font-variant:normal;font-weight:500;font-stretch:normal;font-size:16;writing-mode:lr;-inkscape-font-specification:Cantarell-Regular">and highlighting our assets. Not more than a few sentences per paragraph. Spectaclar paragraph </tspan><tspan
     id="tspan3316"
     sodipodi:role="line"
     y="38.4"
     x="-384.8 -376.976 -367.52 -358.336 -352.288 -343.68 -334.496 -328.448 -324.08 -314.8 -306.192 -298.256 -290.432 -284.176 -280.08 -270.832 -266.736 -257.552 -248.368 -244 -234.544 -225.344 -219.088 -214.72 -208.672 -200.064 -191.712 -178.16 -173.792 -165.44 -156.256 -146.976 -142.608 -133.296 -129.2 -120.016 -110.704 -106.304 -102.208 -93.024 -83.712 -77.664 -73.568 -64.384 -55.2 -50.832 -41.376 -32.176 -25.92 -21.552 -13.2 -5.264 2.672 11.28 17.328 25.264 29.712 34.08 47.04 56.496 62.544 66.912 80.464 89.92 96.176 104.784 109.152 115.2 124.512 132.864 142.048 146.416 154.768 159.136 165.536 174.144 187.312 191.68 199.616 208.224 217.408 223.456 232.064 241.248 249.072 257.68 265.616 269.984 279.184 287.792 294.048 298.416 307.616 315.968 322.224 330.576 339.76 346.016 354.368 363.568 372.88"
     style="fill:#003366;fill-opacity:1;fill-rule:nonzero;stroke:none;font-family:Cantarell;font-variant:normal;font-weight:500;font-stretch:normal;font-size:16;writing-mode:lr;-inkscape-font-specification:Cantarell-Regular">content describing our team and highlighting our assets. Not more than a few sentences per paragraph.</tspan></text>

<text
   id="text3318"
   transform="matrix(1,0,0,-1,585,1950.4777)"><tspan
     id="tspan3320"
     sodipodi:role="line"
     y="0"
     x="0 16 25.632 30.368 40.72 44.6656 55.1456 65.8816 70.6176 80.9696 88.2976 92.2512 102.7312 107.4672 117.9312 128.4112 133.4512 138.1872 148.6512 159.1312 166.4592 176.3472 186.9072 190.8608 198.5408 209.2768 216.6688 220.6272 230.2592 237.5872 244.9152 254.8032 265.1552 272.4832 277.2192 287.9552 298.3072 302.2928 312.7568 320.1488 329.7808 340.3088 350.8368 355.5728 365.9248 376.3888 380.8368"
     style="fill:#003366;fill-opacity:1;fill-rule:nonzero;stroke:none;font-family:Cantarell;font-variant:normal;font-weight:bold;font-stretch:normal;font-size:16;writing-mode:lr;-inkscape-font-specification:Cantarell-Bold">Main point highlighted for attention grabbing. </tspan></text>

<text
   id="text3322"
   transform="matrix(1,0,0,-1,969.8,1950.4777)"><tspan
     id="tspan3324"
     sodipodi:role="line"
     y="0"
     x="0 10.64 19.84 28.448 36.272 42.32 50.672 58.496 62.896 71.248 77.504 81.44 90.64 98.992 105.248 113.6 122.784 129.04 137.392 146.592 155.904 159.8304 167.6544 177.1104 186.2944 192.3424 200.9504 210.1344 216.1824 220.144 229.424 238.032 245.968 253.792 260.048 264.144 273.392 277.488 286.672 295.856 299.792 309.248 318.448 324.704 328.64 334.688 343.296 351.648 365.2"
     style="fill:#003366;fill-opacity:1;fill-rule:nonzero;stroke:none;font-family:Cantarell;font-variant:normal;font-weight:500;font-stretch:normal;font-size:16;writing-mode:lr;-inkscape-font-specification:Cantarell-Regular">Spectaclar paragraph content describing our team </tspan><tspan
     id="tspan3326"
     sodipodi:role="line"
     y="19.2"
     x="-384.8 -376.448 -367.264 -357.984 -350.6784 -341.3664 -337.2704 -328.0864 -318.7744 -314.3744 -310.2784 -301.0944 -291.7824 -285.7344 -281.6384 -272.4544 -263.2704 -255.9744 -246.5184 -237.3184 -231.0624 -223.7664 -215.4144 -207.4784 -199.5424 -190.9344 -184.8864 -176.9504 -172.5024 -165.184 -152.224 -142.768 -136.72 -129.4048 -115.8528 -106.3968 -100.1408 -91.5328 -84.2368 -78.1888 -68.8768 -60.5248 -51.3408 -44.0448 -35.6928 -28.3968 -21.9968 -13.3888 -0.2208 7.0848 15.0208 23.6288 32.8128 38.8608 47.4688 56.6528 64.4768 73.0848 81.0208 88.3392 97.5392 106.1472 112.4032 119.6992 128.8992 137.2512 143.5072 151.8592 161.0432 167.2992 175.6512 184.8512 194.1632 198.6112 205.9072 216.5472 225.7472 234.3552 242.1792 248.2272 256.5792 264.4032 268.8032 277.1552 283.4112 290.7072 299.9072 308.2592 314.5152 322.8672 332.0512 338.3072 346.6592 355.8592 365.1712"
     style="fill:#003366;fill-opacity:1;fill-rule:nonzero;stroke:none;font-family:Cantarell;font-variant:normal;font-weight:500;font-stretch:normal;font-size:16;writing-mode:lr;-inkscape-font-specification:Cantarell-Regular">and highlighting our assets. Not more than a few sentences per paragraph. Spectaclar paragraph </tspan><tspan
     id="tspan3328"
     sodipodi:role="line"
     y="38.4"
     x="-384.8 -376.976 -367.52 -358.336 -352.288 -343.68 -334.496 -328.448 -324.08 -314.8 -306.192 -298.256 -290.432 -284.176 -280.08 -270.832 -266.736 -257.552 -248.368 -244 -234.544 -225.344 -219.088 -214.72 -208.672 -200.064 -191.712 -178.16 -173.792 -165.44 -156.256 -146.976 -142.608 -133.296 -129.2 -120.016 -110.704 -106.304 -102.208 -93.024 -83.712 -77.664 -73.568 -64.384 -55.2 -50.832 -41.376 -32.176 -25.92 -21.552 -13.2 -5.264 2.672 11.28 17.328 25.264 29.712 34.08 47.04 56.496 62.544 66.912 80.464 89.92 96.176 104.784 109.152 115.2 124.512 132.864 142.048 146.416 154.768 159.136 165.536 174.144 187.312 191.68 199.616 208.224 217.408 223.456 232.064 241.248 249.072 257.68 265.616 269.984 279.184 287.792 294.048 298.416 307.616 315.968 322.224 330.576 339.76 346.016 354.368 363.568 372.88"
     style="fill:#003366;fill-opacity:1;fill-rule:nonzero;stroke:none;font-family:Cantarell;font-variant:normal;font-weight:500;font-stretch:normal;font-size:16;writing-mode:lr;-inkscape-font-specification:Cantarell-Regular">content describing our team and highlighting our assets. Not more than a few sentences per paragraph.</tspan></text>

<g
   id="g3330"><g
     clip-path="url(#clipPath3334)"
     id="g3332"><g
       id="g3338"><g
         id="g3340" /><g
         id="g3346"><g
           id="g3348"
           opacity="0.5"
           clip-path="url(#clipPath3342)"><g
             id="g3350"
             transform="translate(973.752,2261.1904)"><path
               id="path3352"
               style="fill:#003366;fill-opacity:1;fill-rule:nonzero;stroke:none"
               d="M 0,0 -13.752,13.752 -27.504,0 l -4.998,4.998 18.746,18.746 0.004,-0.004 0.004,0.004 L 4.998,4.998 0,0 z m -38.752,-13.128 50,0 0,50 -50,0 0,-50 z" /></g></g></g></g><g
       transform="translate(480,1774.6948)"
       id="g3354"><path
         id="path3356"
         style="fill:#003366;fill-opacity:1;fill-rule:nonzero;stroke:#003366;stroke-opacity:1;stroke-width:1;stroke-linecap:butt;stroke-linejoin:miter;stroke-miterlimit:10;stroke-dasharray:none"
         d="M 0,0 960,0" /></g><g
       transform="translate(480,1774.6948)"
       id="g3358"><path
         id="path3360"
         style="fill:#003366;fill-opacity:1;fill-rule:nonzero;stroke:#003366;stroke-opacity:1;stroke-width:1;stroke-linecap:butt;stroke-linejoin:miter;stroke-miterlimit:10;stroke-dasharray:none"
         d="M 0,0 960,0" /></g><g
       id="g3362"><g
         id="g3364" /><g
         id="g3370"><g
           id="g3372"
           opacity="0.5"
           clip-path="url(#clipPath3366)"><g
             id="g3374"
             transform="translate(480,1773.6304)"><path
               id="path3376"
               style="fill:none;stroke:#003366;stroke-opacity:1;stroke-width:1;stroke-linecap:butt;stroke-linejoin:miter;stroke-miterlimit:10;stroke-dasharray:none"
               d="M 0,0 960,0" /></g></g></g></g><g
       id="g3378"><g
         id="g3380" /><g
         id="g3386"><g
           id="g3388"
           opacity="0.5"
           clip-path="url(#clipPath3382)"><g
             id="g3390"
             transform="translate(973.752,1811.2583)"><path
               id="path3392"
               style="fill:#003366;fill-opacity:1;fill-rule:nonzero;stroke:none"
               d="M 0,0 -13.752,13.752 -27.504,0 l -4.998,4.998 18.746,18.746 0.004,-0.004 0.004,0.004 L 4.998,4.998 0,0 z m -38.752,-13.128 50,0 0,50 -50,0 0,-50 z" /></g></g></g></g></g></g><text
   id="text3394"
   transform="matrix(1,0,0,-1,585,1675.5278)"><tspan
     id="tspan3396"
     sodipodi:role="line"
     y="0"
     x="0 28.35 48.888 69.426 94.248 105.798 127.722 152.082 174.678"
     style="fill:#f27124;fill-opacity:1;fill-rule:nonzero;stroke:none;font-family:Cantarell;font-variant:normal;font-weight:500;font-stretch:normal;font-size:42;writing-mode:lr;-inkscape-font-specification:Cantarell-Regular">Accolades</tspan></text>

<text
   id="text3398"
   transform="matrix(1,0,0,-1,585,1612.6323)"><tspan
     id="tspan3400"
     sodipodi:role="line"
     y="0"
     x="0 16 25.632 30.368 40.72 44.6656 55.1456 65.8816 70.6176 80.9696 88.2976 92.2512 102.7312 107.4672 117.9312 128.4112 133.4512 138.1872 148.6512 159.1312 166.4592 176.3472 186.9072 190.8608 198.5408 209.2768 216.6688 220.6272 230.2592 237.5872 244.9152 254.8032 265.1552 272.4832 277.2192 287.9552 298.3072 302.2928 312.7568 320.1488 329.7808 340.3088 350.8368 355.5728 365.9248 376.3888 380.8368"
     style="fill:#003366;fill-opacity:1;fill-rule:nonzero;stroke:none;font-family:Cantarell;font-variant:normal;font-weight:bold;font-stretch:normal;font-size:16;writing-mode:lr;-inkscape-font-specification:Cantarell-Bold">Main point highlighted for attention grabbing. </tspan></text>

<text
   id="text3402"
   transform="matrix(1,0,0,-1,969.8,1612.6323)"><tspan
     id="tspan3404"
     sodipodi:role="line"
     y="0"
     x="0 10.64 19.84 28.448 36.272 42.32 50.672 58.496 62.896 71.248 77.504 81.44 90.64 98.992 105.248 113.6 122.784 129.04 137.392 146.592 155.904 159.8304 167.6544 177.1104 186.2944 192.3424 200.9504 210.1344 216.1824 220.144 229.424 238.032 245.968 253.792 260.048 264.144 273.392 277.488 286.672 295.856 299.792 309.248 318.448 324.704 328.64 334.688 343.296 351.648 365.2"
     style="fill:#003366;fill-opacity:1;fill-rule:nonzero;stroke:none;font-family:Cantarell;font-variant:normal;font-weight:500;font-stretch:normal;font-size:16;writing-mode:lr;-inkscape-font-specification:Cantarell-Regular">Spectaclar paragraph content describing our team </tspan><tspan
     id="tspan3406"
     sodipodi:role="line"
     y="19.2"
     x="-384.8 -376.448 -367.264 -357.984 -350.6784 -341.3664 -337.2704 -328.0864 -318.7744 -314.3744 -310.2784 -301.0944 -291.7824 -285.7344 -281.6384 -272.4544 -263.2704 -255.9744 -246.5184 -237.3184 -231.0624 -223.7664 -215.4144 -207.4784 -199.5424 -190.9344 -184.8864 -176.9504 -172.5024 -165.184 -152.224 -142.768 -136.72 -129.4048 -115.8528 -106.3968 -100.1408 -91.5328 -84.2368 -78.1888 -68.8768 -60.5248 -51.3408 -44.0448 -35.6928 -28.3968 -21.9968 -13.3888 -0.2208 7.0848 15.0208 23.6288 32.8128 38.8608 47.4688 56.6528 64.4768 73.0848 81.0208 88.3392 97.5392 106.1472 112.4032 119.6992 128.8992 137.2512 143.5072 151.8592 161.0432 167.2992 175.6512 184.8512 194.1632 198.6112 205.9072 216.5472 225.7472 234.3552 242.1792 248.2272 256.5792 264.4032 268.8032 277.1552 283.4112 290.7072 299.9072 308.2592 314.5152 322.8672 332.0512 338.3072 346.6592 355.8592 365.1712"
     style="fill:#003366;fill-opacity:1;fill-rule:nonzero;stroke:none;font-family:Cantarell;font-variant:normal;font-weight:500;font-stretch:normal;font-size:16;writing-mode:lr;-inkscape-font-specification:Cantarell-Regular">and highlighting our assets. Not more than a few sentences per paragraph. Spectaclar paragraph </tspan><tspan
     id="tspan3408"
     sodipodi:role="line"
     y="38.4"
     x="-384.8 -376.976 -367.52 -358.336 -352.288 -343.68 -334.496 -328.448 -324.08 -314.8 -306.192 -298.256 -290.432 -284.176 -280.08 -270.832 -266.736 -257.552 -248.368 -244 -234.544 -225.344 -219.088 -214.72 -208.672 -200.064 -191.712 -178.16 -173.792 -165.44 -156.256 -146.976 -142.608 -133.296 -129.2 -120.016 -110.704 -106.304 -102.208 -93.024 -83.712 -77.664 -73.568 -64.384 -55.2 -50.832 -41.376 -32.176 -25.92 -21.552 -13.2 -5.264 2.672 11.28 17.328 25.264 29.712 34.08 47.04 56.496 62.544 66.912 80.464 89.92 96.176 104.784 109.152 115.2 124.512 132.864 142.048 146.416 154.768 159.136 165.536 174.144 187.312 191.68 199.616 208.224 217.408 223.456 232.064 241.248 249.072 257.68 265.616 269.984 279.184 287.792 294.048 298.416 307.616 315.968 322.224 330.576 339.76 346.016 354.368 363.568 372.88"
     style="fill:#003366;fill-opacity:1;fill-rule:nonzero;stroke:none;font-family:Cantarell;font-variant:normal;font-weight:500;font-stretch:normal;font-size:16;writing-mode:lr;-inkscape-font-specification:Cantarell-Regular">content describing our team and highlighting our assets. Not more than a few sentences per paragraph.</tspan></text>

<text
   id="text3410"
   transform="matrix(1,0,0,-1,585,1506.1203)"><tspan
     id="tspan3412"
     sodipodi:role="line"
     y="0"
     x="0 16 25.632 30.368 40.72 44.6656 55.1456 65.8816 70.6176 80.9696 88.2976 92.2512 102.7312 107.4672 117.9312 128.4112 133.4512 138.1872 148.6512 159.1312 166.4592 176.3472 186.9072 190.8608 198.5408 209.2768 216.6688 220.6272 230.2592 237.5872 244.9152 254.8032 265.1552 272.4832 277.2192 287.9552 298.3072 302.2928 312.7568 320.1488 329.7808 340.3088 350.8368 355.5728 365.9248 376.3888 380.8368"
     style="fill:#003366;fill-opacity:1;fill-rule:nonzero;stroke:none;font-family:Cantarell;font-variant:normal;font-weight:bold;font-stretch:normal;font-size:16;writing-mode:lr;-inkscape-font-specification:Cantarell-Bold">Main point highlighted for attention grabbing. </tspan></text>

<text
   id="text3414"
   transform="matrix(1,0,0,-1,969.8,1506.1203)"><tspan
     id="tspan3416"
     sodipodi:role="line"
     y="0"
     x="0 10.64 19.84 28.448 36.272 42.32 50.672 58.496 62.896 71.248 77.504 81.44 90.64 98.992 105.248 113.6 122.784 129.04 137.392 146.592 155.904 159.8304 167.6544 177.1104 186.2944 192.3424 200.9504 210.1344 216.1824 220.144 229.424 238.032 245.968 253.792 260.048 264.144 273.392 277.488 286.672 295.856 299.792 309.248 318.448 324.704 328.64 334.688 343.296 351.648 365.2"
     style="fill:#003366;fill-opacity:1;fill-rule:nonzero;stroke:none;font-family:Cantarell;font-variant:normal;font-weight:500;font-stretch:normal;font-size:16;writing-mode:lr;-inkscape-font-specification:Cantarell-Regular">Spectaclar paragraph content describing our team </tspan><tspan
     id="tspan3418"
     sodipodi:role="line"
     y="19.2"
     x="-384.8 -376.448 -367.264 -357.984 -350.6784 -341.3664 -337.2704 -328.0864 -318.7744 -314.3744 -310.2784 -301.0944 -291.7824 -285.7344 -281.6384 -272.4544 -263.2704 -255.9744 -246.5184 -237.3184 -231.0624 -223.7664 -215.4144 -207.4784 -199.5424 -190.9344 -184.8864 -176.9504 -172.5024 -165.184 -152.224 -142.768 -136.72 -129.4048 -115.8528 -106.3968 -100.1408 -91.5328 -84.2368 -78.1888 -68.8768 -60.5248 -51.3408 -44.0448 -35.6928 -28.3968 -21.9968 -13.3888 -0.2208 7.0848 15.0208 23.6288 32.8128 38.8608 47.4688 56.6528 64.4768 73.0848 81.0208 88.3392 97.5392 106.1472 112.4032 119.6992 128.8992 137.2512 143.5072 151.8592 161.0432 167.2992 175.6512 184.8512 194.1632 198.6112 205.9072 216.5472 225.7472 234.3552 242.1792 248.2272 256.5792 264.4032 268.8032 277.1552 283.4112 290.7072 299.9072 308.2592 314.5152 322.8672 332.0512 338.3072 346.6592 355.8592 365.1712"
     style="fill:#003366;fill-opacity:1;fill-rule:nonzero;stroke:none;font-family:Cantarell;font-variant:normal;font-weight:500;font-stretch:normal;font-size:16;writing-mode:lr;-inkscape-font-specification:Cantarell-Regular">and highlighting our assets. Not more than a few sentences per paragraph. Spectaclar paragraph </tspan><tspan
     id="tspan3420"
     sodipodi:role="line"
     y="38.4"
     x="-384.8 -376.976 -367.52 -358.336 -352.288 -343.68 -334.496 -328.448 -324.08 -314.8 -306.192 -298.256 -290.432 -284.176 -280.08 -270.832 -266.736 -257.552 -248.368 -244 -234.544 -225.344 -219.088 -214.72 -208.672 -200.064 -191.712 -178.16 -173.792 -165.44 -156.256 -146.976 -142.608 -133.296 -129.2 -120.016 -110.704 -106.304 -102.208 -93.024 -83.712 -77.664 -73.568 -64.384 -55.2 -50.832 -41.376 -32.176 -25.92 -21.552 -13.2 -5.264 2.672 11.28 17.328 25.264 29.712 34.08 47.04 56.496 62.544 66.912 80.464 89.92 96.176 104.784 109.152 115.2 124.512 132.864 142.048 146.416 154.768 159.136 165.536 174.144 187.312 191.68 199.616 208.224 217.408 223.456 232.064 241.248 249.072 257.68 265.616 269.984 279.184 287.792 294.048 298.416 307.616 315.968 322.224 330.576 339.76 346.016 354.368 363.568 372.88"
     style="fill:#003366;fill-opacity:1;fill-rule:nonzero;stroke:none;font-family:Cantarell;font-variant:normal;font-weight:500;font-stretch:normal;font-size:16;writing-mode:lr;-inkscape-font-specification:Cantarell-Regular">content describing our team and highlighting our assets. Not more than a few sentences per paragraph.</tspan></text>

<g
   id="g3422"><g
     clip-path="url(#clipPath3426)"
     id="g3424"><g
       transform="translate(480,1106.7295)"
       id="g3430"><path
         id="path3432"
         style="fill:#003366;fill-opacity:1;fill-rule:nonzero;stroke:#003366;stroke-opacity:1;stroke-width:1;stroke-linecap:butt;stroke-linejoin:miter;stroke-miterlimit:10;stroke-dasharray:none"
         d="M 0,0 960,0" /></g><g
       transform="translate(480,1106.7295)"
       id="g3434"><path
         id="path3436"
         style="fill:#003366;fill-opacity:1;fill-rule:nonzero;stroke:#003366;stroke-opacity:1;stroke-width:1;stroke-linecap:butt;stroke-linejoin:miter;stroke-miterlimit:10;stroke-dasharray:none"
         d="M 0,0 960,0" /></g><g
       id="g3438"><g
         id="g3440" /><g
         id="g3446"><g
           id="g3448"
           opacity="0.5"
           clip-path="url(#clipPath3442)"><g
             id="g3450"
             transform="translate(480,1105.665)"><path
               id="path3452"
               style="fill:none;stroke:#003366;stroke-opacity:1;stroke-width:1;stroke-linecap:butt;stroke-linejoin:miter;stroke-miterlimit:10;stroke-dasharray:none"
               d="M 0,0 960,0" /></g></g></g></g><g
       id="g3454"><g
         id="g3456" /><g
         id="g3462"><g
           id="g3464"
           opacity="0.5"
           clip-path="url(#clipPath3458)"><g
             id="g3466"
             transform="translate(973.752,1143.292)"><path
               id="path3468"
               style="fill:#003366;fill-opacity:1;fill-rule:nonzero;stroke:none"
               d="M 0,0 -13.752,13.752 -27.504,0 l -4.998,4.998 18.746,18.746 0.004,-0.004 0.004,0.004 L 4.998,4.998 0,0 z m -38.752,-13.127 50,0 0,50 -50,0 0,-50 z" /></g></g></g></g><path
       id="path3470"
       style="fill:#f27124;fill-opacity:1;fill-rule:nonzero;stroke:none"
       d="m 785.079,1278.492 -208.488,0 0,151.492 208.488,0 0,-151.492 z" /></g></g><text
   id="text3472"
   transform="matrix(0.78530833,0,0,-1,613.4111,1369.2383)"><tspan
     id="tspan3474"
     sodipodi:role="line"
     y="0"
     x="0 13.416 32.352 47.04 59.952 75.936 81.024 86.76 105.816 120.144 135.648 147.456"
     style="fill:#000000;fill-opacity:1;fill-rule:nonzero;stroke:none;font-family:Myriad Pro;font-variant:normal;font-weight:normal;font-stretch:normal;font-size:24;writing-mode:lr;-inkscape-font-specification:MyriadPro-Regular">AWARD IMAGES</tspan></text>

<g
   id="g3476"><g
     clip-path="url(#clipPath3480)"
     id="g3478"><path
       id="path3484"
       style="fill:#f27124;fill-opacity:1;fill-rule:nonzero;stroke:none"
       d="m 1343.409,1278.492 -208.488,0 0,151.492 208.488,0 0,-151.492 z" /></g></g><text
   id="text3486"
   transform="matrix(0.78530833,0,0,-1,1171.7412,1369.2383)"><tspan
     id="tspan3488"
     sodipodi:role="line"
     y="0"
     x="0 13.416 32.352 47.04 59.952 75.936 81.024 86.76 105.816 120.144 135.648 147.456"
     style="fill:#000000;fill-opacity:1;fill-rule:nonzero;stroke:none;font-family:Myriad Pro;font-variant:normal;font-weight:normal;font-stretch:normal;font-size:24;writing-mode:lr;-inkscape-font-specification:MyriadPro-Regular">AWARD IMAGES</tspan></text>

<g
   id="g3490"><g
     clip-path="url(#clipPath3494)"
     id="g3492"><path
       id="path3498"
       style="fill:#f27124;fill-opacity:1;fill-rule:nonzero;stroke:none"
       d="m 1064.245,1278.492 -208.49,0 0,151.492 208.49,0 0,-151.492 z" /></g></g><text
   id="text3500"
   transform="matrix(0.78530833,0,0,-1,892.5762,1369.2383)"><tspan
     id="tspan3502"
     sodipodi:role="line"
     y="0"
     x="0 13.416 32.352 47.04 59.952 75.936 81.024 86.76 105.816 120.144 135.648 147.456"
     style="fill:#000000;fill-opacity:1;fill-rule:nonzero;stroke:none;font-family:Myriad Pro;font-variant:normal;font-weight:normal;font-stretch:normal;font-size:24;writing-mode:lr;-inkscape-font-specification:MyriadPro-Regular">AWARD IMAGES</tspan></text>

<g
   id="g3504"><g
     clip-path="url(#clipPath3508)"
     id="g3506"><g
       transform="matrix(1920,0,0,420,2.2050781,2647.7578)"
       id="g3512"><image
         width="1"
         height="1"
         transform="matrix(1,0,0,-1,0,1)"
         id="image3514"
         xlink:href="/home/kurtosis/dev/clients/ei/assets/website_about_img0.png" /></g></g></g></g><g
     inkscape:groupmode="layer"
     inkscape:label="Web Slicer"
     id="webslicer-layer"><rect
       height="200"
       width="200"
       y="-100"
       x="-100"
       opacity="0.5"
       fill="red"
       id="award_image"><desc
         id="desc3800">format: jpg
quality: 100
dpi: 90
layout-disposition: bg-el-norepeat
layout-position-anchor: tl</desc></rect></g></svg>